<?xml version="1.0" standalone="no"?>
<!DOCTYPE svg PUBLIC "-//W3C//DTD SVG 20010904//EN"
 "http://www.w3.org/TR/2001/REC-SVG-20010904/DTD/svg10.dtd">
<svg version="1.0" xmlns="http://www.w3.org/2000/svg"
 width="512.000000pt" height="512.000000pt" viewBox="0 0 512.000000 512.000000"
 preserveAspectRatio="xMidYMid meet">

<g transform="translate(0.000000,512.000000) scale(0.100000,-0.100000)" stroke="none">
<path d="M32 5104 l-22 -15 0 -2203 0 -2203 21 -19 c20 -18 53 -19 960 -22
l939 -2 0 -305 c0 -303 0 -304 22 -319 20 -14 186 -16 1579 -16 1495 0 1557 1
1572 18 16 17 17 186 17 2224 0 2039 -1 2207 -17 2219 -13 12 -177 14 -955 17
l-938 2 0 294 c0 282 -1 294 -21 320 l-20 26 -1558 0 c-1393 0 -1559 -2 -1579
-16z m3048 -2224 l0 -2110 -1470 0 -1470 0 0 2110 0 2110 1470 0 1470 0 0
-2110z m1920 -640 l0 -2110 -1377 0 c-757 0 -1373 3 -1369 7 4 4 215 123 469
264 318 176 466 264 474 280 10 19 13 420 13 1847 l0 1822 895 0 895 0 0
-2110z m-2121 -1604 c-2 -2 -184 -104 -404 -226 -220 -122 -403 -224 -407
-227 -5 -2 -8 100 -8 226 l0 231 412 0 c226 0 409 -2 407 -4z"/>
<path d="M1534 4731 c-96 -25 -187 -100 -225 -186 -11 -25 -22 -73 -26 -108
-5 -60 -8 -65 -40 -82 -18 -10 -51 -38 -73 -61 -104 -112 -124 -263 -54 -399
l25 -49 -25 -51 c-92 -182 -18 -396 168 -481 62 -28 154 -40 214 -26 l42 10 0
-73 0 -72 -79 -6 c-99 -6 -169 -41 -217 -107 -61 -82 -61 -65 4 -917 58 -763
59 -772 86 -827 108 -220 434 -220 545 1 11 22 23 58 26 80 19 127 123 1533
116 1563 -28 125 -126 199 -273 208 l-78 5 0 74 c0 65 2 74 16 69 81 -31 216
-8 303 52 150 103 198 325 100 463 -19 26 -18 27 14 90 29 58 32 72 32 154 0
77 -4 98 -27 147 -29 62 -99 138 -146 157 -28 12 -30 16 -34 79 -9 162 -134
286 -300 297 -34 2 -77 1 -94 -4z m185 -155 c21 -15 48 -45 61 -67 20 -37 22
-50 17 -117 -3 -42 -2 -83 4 -93 5 -10 31 -25 57 -33 87 -29 152 -117 152
-206 0 -60 -19 -110 -60 -156 -38 -44 -38 -77 1 -122 43 -48 59 -91 59 -155 0
-78 -46 -151 -120 -190 -48 -25 -63 -28 -116 -24 -113 8 -104 -27 -104 390 0
199 -4 367 -8 373 -9 13 -46 34 -62 34 -6 0 -22 -11 -35 -25 l-25 -24 0 -361
0 -361 -35 -15 c-78 -32 -169 -10 -236 56 -80 80 -89 187 -23 278 58 80 61 89
36 120 -12 15 -34 47 -49 72 -49 80 -32 202 37 265 12 11 49 34 83 50 l62 30
-3 74 c-3 85 9 128 46 173 61 72 182 88 261 34z m94 -1567 c34 -18 68 -52 78
-78 9 -22 -4 -277 -16 -338 -5 -20 -12 -21 -109 -25 -85 -2 -108 -6 -125 -22
-25 -23 -27 -53 -5 -84 14 -20 23 -22 121 -22 l106 0 -6 -72 c-3 -40 -12 -148
-18 -240 l-13 -168 -113 0 c-100 0 -115 -2 -133 -20 -11 -11 -20 -31 -20 -45
0 -14 9 -34 20 -45 17 -17 33 -20 125 -20 l105 0 0 -32 c0 -86 -33 -417 -45
-444 -35 -83 -165 -121 -250 -72 -48 28 -85 89 -85 141 l0 37 102 0 c80 0 105
3 120 17 27 24 23 68 -8 92 -23 18 -41 21 -125 21 l-98 0 -5 33 c-3 17 -12
133 -21 257 -8 124 -18 246 -21 272 l-6 46 112 4 c103 3 113 5 131 27 24 30
24 56 -1 81 -18 18 -33 20 -134 20 l-113 0 -6 68 c-4 37 -10 118 -13 180 l-7
112 111 0 c122 0 142 8 142 59 0 50 -24 60 -150 63 l-115 3 -3 53 c-2 40 2 61
18 86 36 59 63 66 268 66 117 0 191 -4 205 -11z"/>
<path d="M3720 3710 c-11 -11 -20 -31 -20 -45 0 -14 9 -34 20 -45 19 -19 33
-20 388 -20 357 0 369 1 390 20 12 12 22 32 22 45 0 13 -10 33 -22 45 -21 19
-33 20 -390 20 -355 0 -369 -1 -388 -20z"/>
<path d="M3720 3130 c-11 -11 -20 -31 -20 -45 0 -14 9 -34 20 -45 19 -19 33
-20 390 -20 357 0 371 1 390 20 28 28 25 64 -6 89 -26 20 -38 21 -390 21 -351
0 -365 -1 -384 -20z"/>
<path d="M3740 2563 c-43 -15 -54 -82 -18 -107 19 -14 74 -16 390 -16 355 0
369 1 388 20 28 28 25 64 -6 89 -26 20 -37 21 -383 20 -196 0 -363 -3 -371 -6z"/>
<path d="M3735 1978 c-11 -6 -23 -16 -27 -22 -14 -20 -8 -63 10 -79 17 -15 58
-17 390 -17 359 0 373 1 392 20 28 28 25 64 -6 89 -26 20 -37 21 -383 21 -246
-1 -362 -4 -376 -12z"/>
<path d="M3750 1403 c-49 -19 -66 -75 -32 -106 17 -15 58 -17 390 -17 359 0
373 1 392 20 25 25 25 51 1 81 l-19 24 -359 2 c-197 1 -365 -1 -373 -4z"/>
<path d="M3717 802 c-22 -24 -22 -65 1 -86 17 -15 56 -16 398 -14 l378 3 16
28 c13 24 13 30 0 55 l-16 27 -380 3 c-359 2 -382 1 -397 -16z"/>
</g>
</svg>
