<?xml version="1.0" standalone="no"?>
<!DOCTYPE svg PUBLIC "-//W3C//DTD SVG 20010904//EN"
 "http://www.w3.org/TR/2001/REC-SVG-20010904/DTD/svg10.dtd">
<svg version="1.0" xmlns="http://www.w3.org/2000/svg"
 width="512.000000pt" height="512.000000pt" viewBox="0 0 512.000000 512.000000"
 preserveAspectRatio="xMidYMid meet">

<g transform="translate(0.000000,512.000000) scale(0.100000,-0.100000)"
 stroke="none">
<path d="M1034 5101 c-23 -10 -54 -36 -70 -57 l-29 -37 0 -616 c0 -670 -1
-657 58 -776 37 -74 150 -189 227 -230 30 -16 82 -37 115 -46 l60 -16 3 -647
2 -646 -52 0 c-66 0 -125 -33 -156 -88 l-22 -40 0 -779 c0 -862 -3 -821 65
-928 142 -224 452 -258 640 -70 60 61 100 136 115 216 7 36 9 327 8 816 l-3
761 -31 39 c-40 50 -87 73 -151 73 l-53 0 0 645 0 644 43 11 c171 45 293 139
369 287 64 125 63 107 63 774 l0 605 -27 41 c-47 72 -138 100 -215 68 -50 -21
-72 -42 -94 -90 -17 -37 -19 -75 -19 -502 l0 -463 -60 0 -59 0 -3 478 -3 479
-29 37 c-80 105 -232 96 -298 -19 -23 -40 -23 -40 -26 -507 l-3 -468 -54 0
-54 0 -3 468 c-3 467 -3 467 -26 507 -48 83 -145 116 -228 76z m606 -4063 c0
-583 -2 -643 -17 -660 -19 -22 -52 -23 -79 -4 -18 14 -19 34 -22 647 -1 349 0
639 2 646 4 8 25 13 61 13 l55 0 0 -642z"/>
<path d="M3847 5104 c-207 -37 -386 -133 -533 -285 -115 -119 -202 -275 -246
-440 l-22 -84 -4 -1225 c-2 -859 0 -1236 8 -1262 14 -48 55 -97 97 -114 19 -8
69 -14 123 -14 l90 0 0 -657 c0 -700 1 -706 50 -802 12 -25 46 -69 76 -98 229
-229 626 -110 693 207 9 41 11 626 9 2366 l-3 2311 -29 37 c-56 74 -142 90
-309 60z m-17 -1724 l0 -1350 -215 0 -215 0 0 1091 c0 968 2 1098 16 1162 37
162 135 300 279 389 38 23 111 56 128 57 4 1 7 -606 7 -1349z m0 -2344 c0
-702 2 -676 -55 -676 -57 0 -55 -26 -55 676 l0 644 55 0 55 0 0 -644z"/>
</g>
</svg>
