<?xml version="1.0" standalone="no"?>
<!DOCTYPE svg PUBLIC "-//W3C//DTD SVG 20010904//EN"
 "http://www.w3.org/TR/2001/REC-SVG-20010904/DTD/svg10.dtd">
<svg version="1.0" xmlns="http://www.w3.org/2000/svg"
 width="512.000000pt" height="512.000000pt" viewBox="0 0 512.000000 512.000000"
 preserveAspectRatio="xMidYMid meet">

<g transform="translate(0.000000,512.000000) scale(0.100000,-0.100000)"
stroke="none">
<path d="M3610 5110 c-19 -5 -577 -139 -1240 -299 -663 -160 -1228 -298 -1257
-306 -36 -11 -66 -29 -97 -60 -83 -84 -76 115 -74 -2200 3 -1959 4 -2062 21
-2096 24 -47 71 -95 121 -122 l41 -22 1435 0 1435 0 41 22 c50 27 97 75 121
122 17 34 18 137 21 2096 2 2247 6 2102 -54 2180 -34 45 -96 82 -150 91 l-41
6 -5 197 c-6 209 -12 239 -64 308 -53 70 -164 106 -254 83z m115 -185 c25 -24
25 -26 25 -215 l0 -190 -912 1 c-502 0 -906 3 -898 7 28 11 1715 420 1738 421
13 0 34 -10 47 -24z m259 -601 l26 -27 0 -2034 0 -2035 -29 -29 -29 -29 -1392
0 -1392 0 -29 29 -29 29 0 2035 0 2034 26 27 27 26 1397 0 1397 0 27 -26z"/>
<path d="M1774 4112 c-12 -2 -31 -13 -43 -26 -22 -23 -22 -25 -19 -427 l3
-404 28 -57 c17 -34 49 -76 80 -104 l52 -47 5 -701 c6 -775 1 -726 71 -795
132 -133 354 -88 419 85 19 53 20 76 20 737 l1 682 40 28 c47 32 94 103 114
171 22 74 22 792 0 823 -33 47 -118 44 -144 -6 -7 -12 -11 -106 -11 -256 l0
-237 -29 -29 c-38 -37 -79 -38 -115 -3 l-26 27 0 234 c0 257 -5 283 -57 300
-38 12 -67 6 -89 -19 -17 -18 -19 -45 -24 -270 l-5 -250 -28 -24 c-36 -31 -77
-31 -111 1 l-26 24 0 231 c0 257 -6 290 -56 307 -16 5 -39 7 -50 5z m394 -721
c46 -31 100 -44 163 -37 65 6 66 5 49 -53 -12 -42 -52 -86 -102 -112 -20 -10
-40 -24 -45 -31 -4 -7 -10 -340 -13 -740 l-5 -727 -22 -23 c-31 -30 -84 -30
-118 2 l-25 23 0 720 0 719 -33 32 c-18 17 -47 39 -64 48 -34 18 -73 82 -73
121 0 24 2 24 68 20 60 -4 73 -1 122 25 68 36 66 36 98 13z"/>
<path d="M2761 4092 l-31 -30 0 -1186 c0 -1168 0 -1186 20 -1240 39 -103 154
-175 261 -163 87 11 166 66 205 144 18 36 19 71 22 584 l2 547 32 6 c49 10 97
45 118 87 19 36 20 59 20 371 0 383 -9 448 -80 594 -88 182 -248 287 -472 310
-65 6 -68 6 -97 -24z m251 -190 c99 -43 183 -164 213 -307 11 -53 15 -145 15
-372 l0 -303 -54 0 c-44 0 -61 -5 -83 -24 l-28 -24 -3 -590 -2 -589 -26 -23
c-33 -32 -86 -32 -117 -2 l-22 23 -3 1123 -2 1124 32 -7 c18 -4 54 -17 80 -29z"/>
<path d="M1670 947 c-52 -26 -60 -89 -18 -134 l21 -23 628 0 628 0 25 23 c28
24 34 48 23 89 -15 59 -8 58 -674 58 -468 0 -614 -3 -633 -13z"/>
<path d="M3205 948 c-51 -30 -61 -93 -20 -133 23 -24 30 -25 143 -25 114 0
119 1 142 25 32 34 32 87 2 118 -20 20 -34 22 -135 25 -73 1 -119 -2 -132 -10z"/>
<path d="M1672 605 c-56 -24 -66 -92 -20 -135 20 -18 35 -20 182 -20 176 1
188 4 207 58 14 41 -9 86 -52 101 -47 16 -276 14 -317 -4z"/>
<path d="M2274 610 c-55 -22 -70 -95 -29 -135 21 -22 33 -25 98 -25 93 0 127
21 127 78 -1 44 -16 67 -54 82 -32 12 -112 12 -142 0z"/>
<path d="M2701 609 c-35 -14 -50 -39 -51 -81 0 -28 6 -41 26 -57 26 -20 37
-21 398 -21 360 0 373 1 394 20 47 44 36 111 -23 135 -28 12 -99 15 -377 14
-195 0 -353 -4 -367 -10z"/>
</g>
</svg>
